<mxfile host="app.diagrams.net" modified="2024-03-20T14:08:37.230Z" agent="Mozilla/5.0 (Windows NT 10.0; Win64; x64) AppleWebKit/537.36 (KHTML, like Gecko) Chrome/122.0.0.0 Safari/537.36 Edg/122.0.0.0" etag="ufi1dH2TfW1WLgTD8QA1" version="24.0.7" type="github">
  <diagram name="第 1 页" id="QbPefZvWV7xZgJjfoefO">
    <mxGraphModel dx="5210" dy="2930" grid="1" gridSize="10" guides="1" tooltips="1" connect="1" arrows="1" fold="1" page="1" pageScale="1" pageWidth="2000" pageHeight="1200" math="0" shadow="0">
      <root>
        <mxCell id="0" />
        <mxCell id="1" parent="0" />
        <mxCell id="6Kh3XinaVXbYN6B3KpNU-6" style="edgeStyle=orthogonalEdgeStyle;rounded=0;orthogonalLoop=1;jettySize=auto;html=1;exitX=0.5;exitY=1;exitDx=0;exitDy=0;entryX=0.5;entryY=0;entryDx=0;entryDy=0;strokeWidth=5;" parent="1" source="6Kh3XinaVXbYN6B3KpNU-1" target="6Kh3XinaVXbYN6B3KpNU-2" edge="1">
          <mxGeometry relative="1" as="geometry" />
        </mxCell>
        <mxCell id="6Kh3XinaVXbYN6B3KpNU-7" style="edgeStyle=orthogonalEdgeStyle;rounded=0;orthogonalLoop=1;jettySize=auto;html=1;exitX=0.5;exitY=1;exitDx=0;exitDy=0;entryX=0.5;entryY=0;entryDx=0;entryDy=0;strokeWidth=5;" parent="1" source="6Kh3XinaVXbYN6B3KpNU-1" target="6Kh3XinaVXbYN6B3KpNU-3" edge="1">
          <mxGeometry relative="1" as="geometry" />
        </mxCell>
        <mxCell id="6Kh3XinaVXbYN6B3KpNU-8" style="edgeStyle=orthogonalEdgeStyle;rounded=0;orthogonalLoop=1;jettySize=auto;html=1;exitX=0.5;exitY=1;exitDx=0;exitDy=0;strokeWidth=5;" parent="1" source="6Kh3XinaVXbYN6B3KpNU-1" target="6Kh3XinaVXbYN6B3KpNU-4" edge="1">
          <mxGeometry relative="1" as="geometry" />
        </mxCell>
        <mxCell id="6Kh3XinaVXbYN6B3KpNU-9" style="edgeStyle=orthogonalEdgeStyle;rounded=0;orthogonalLoop=1;jettySize=auto;html=1;exitX=0.5;exitY=1;exitDx=0;exitDy=0;strokeWidth=5;" parent="1" source="6Kh3XinaVXbYN6B3KpNU-1" target="6Kh3XinaVXbYN6B3KpNU-5" edge="1">
          <mxGeometry relative="1" as="geometry" />
        </mxCell>
        <mxCell id="vRzPiB2G4-YQs7T_42j8-2" style="edgeStyle=orthogonalEdgeStyle;rounded=0;orthogonalLoop=1;jettySize=auto;html=1;exitX=0.5;exitY=1;exitDx=0;exitDy=0;strokeWidth=5;" edge="1" parent="1" source="6Kh3XinaVXbYN6B3KpNU-1" target="vRzPiB2G4-YQs7T_42j8-1">
          <mxGeometry relative="1" as="geometry" />
        </mxCell>
        <mxCell id="6Kh3XinaVXbYN6B3KpNU-1" value="&lt;font style=&quot;font-size: 70px;&quot;&gt;QtQQ服务端&lt;/font&gt;" style="rounded=0;whiteSpace=wrap;html=1;" parent="1" vertex="1">
          <mxGeometry x="590" y="60" width="790" height="150" as="geometry" />
        </mxCell>
        <mxCell id="6Kh3XinaVXbYN6B3KpNU-2" value="&lt;font style=&quot;font-size: 60px;&quot;&gt;添&lt;/font&gt;&lt;div&gt;&lt;font style=&quot;font-size: 60px;&quot;&gt;加&lt;/font&gt;&lt;/div&gt;&lt;div&gt;&lt;font style=&quot;font-size: 60px;&quot;&gt;用&lt;/font&gt;&lt;/div&gt;&lt;div&gt;&lt;font style=&quot;font-size: 60px;&quot;&gt;户&lt;/font&gt;&lt;/div&gt;" style="rounded=0;whiteSpace=wrap;html=1;" parent="1" vertex="1">
          <mxGeometry x="180" y="430" width="150" height="600" as="geometry" />
        </mxCell>
        <mxCell id="6Kh3XinaVXbYN6B3KpNU-3" value="&lt;span style=&quot;font-size: 60px;&quot;&gt;删&lt;/span&gt;&lt;div&gt;&lt;span style=&quot;font-size: 60px;&quot;&gt;除&lt;/span&gt;&lt;br&gt;&lt;div&gt;&lt;font style=&quot;font-size: 60px;&quot;&gt;用&lt;/font&gt;&lt;/div&gt;&lt;div&gt;&lt;font style=&quot;font-size: 60px;&quot;&gt;户&lt;/font&gt;&lt;/div&gt;&lt;/div&gt;" style="rounded=0;whiteSpace=wrap;html=1;" parent="1" vertex="1">
          <mxGeometry x="530" y="430" width="150" height="600" as="geometry" />
        </mxCell>
        <mxCell id="6Kh3XinaVXbYN6B3KpNU-4" value="&lt;span style=&quot;font-size: 60px;&quot;&gt;修&lt;/span&gt;&lt;div&gt;&lt;span style=&quot;font-size: 60px;&quot;&gt;改&lt;/span&gt;&lt;/div&gt;&lt;div&gt;&lt;span style=&quot;font-size: 60px;&quot;&gt;用&lt;/span&gt;&lt;/div&gt;&lt;div&gt;&lt;span style=&quot;font-size: 60px;&quot;&gt;户&lt;/span&gt;&lt;/div&gt;&lt;div&gt;&lt;span style=&quot;font-size: 60px;&quot;&gt;信&lt;/span&gt;&lt;/div&gt;&lt;div&gt;&lt;span style=&quot;font-size: 60px;&quot;&gt;息&lt;/span&gt;&lt;/div&gt;" style="rounded=0;whiteSpace=wrap;html=1;" parent="1" vertex="1">
          <mxGeometry x="1250" y="430" width="150" height="600" as="geometry" />
        </mxCell>
        <mxCell id="6Kh3XinaVXbYN6B3KpNU-5" value="&lt;span style=&quot;font-size: 60px;&quot;&gt;查&lt;/span&gt;&lt;div&gt;&lt;span style=&quot;font-size: 60px;&quot;&gt;看&lt;/span&gt;&lt;/div&gt;&lt;div&gt;&lt;span style=&quot;font-size: 60px;&quot;&gt;所&lt;/span&gt;&lt;/div&gt;&lt;div&gt;&lt;span style=&quot;font-size: 60px;&quot;&gt;有&lt;/span&gt;&lt;/div&gt;&lt;div&gt;&lt;span style=&quot;font-size: 60px;&quot;&gt;用&lt;/span&gt;&lt;/div&gt;&lt;div&gt;&lt;span style=&quot;font-size: 60px;&quot;&gt;户&lt;/span&gt;&lt;/div&gt;&lt;div&gt;&lt;span style=&quot;font-size: 60px;&quot;&gt;信&lt;/span&gt;&lt;/div&gt;&lt;div&gt;&lt;span style=&quot;font-size: 60px;&quot;&gt;息&lt;/span&gt;&lt;/div&gt;" style="rounded=0;whiteSpace=wrap;html=1;" parent="1" vertex="1">
          <mxGeometry x="1620" y="430" width="150" height="600" as="geometry" />
        </mxCell>
        <mxCell id="vRzPiB2G4-YQs7T_42j8-1" value="&lt;span style=&quot;font-size: 60px;&quot;&gt;搜&lt;/span&gt;&lt;div&gt;&lt;span style=&quot;font-size: 60px;&quot;&gt;索&lt;/span&gt;&lt;/div&gt;&lt;div&gt;&lt;span style=&quot;font-size: 60px;&quot;&gt;用&lt;/span&gt;&lt;/div&gt;&lt;div&gt;&lt;span style=&quot;font-size: 60px;&quot;&gt;户&lt;/span&gt;&lt;/div&gt;" style="rounded=0;whiteSpace=wrap;html=1;" vertex="1" parent="1">
          <mxGeometry x="910" y="440" width="150" height="600" as="geometry" />
        </mxCell>
      </root>
    </mxGraphModel>
  </diagram>
</mxfile>
